<svg width="25" height="31" viewBox="0 0 25 31" fill="none" xmlns="http://www.w3.org/2000/svg">
<g id="Location">
<path id="Location_2" fill-rule="evenodd" clip-rule="evenodd" d="M0.104248 13.0461C0.104248 6.33794 5.70991 0.916016 12.4905 0.916016C19.2903 0.916016 24.8959 6.33794 24.8959 13.0461C24.8959 16.4264 23.6666 19.5646 21.6431 22.2246C19.4108 25.1586 16.6595 27.715 13.5625 29.7216C12.8537 30.1854 12.2141 30.2204 11.4362 29.7216C8.32157 27.715 5.57021 25.1586 3.35706 22.2246C1.33214 19.5646 0.104248 16.4264 0.104248 13.0461ZM8.40833 13.4238C8.40833 15.671 10.2421 17.4384 12.4905 17.4384C14.7404 17.4384 16.5918 15.671 16.5918 13.4238C16.5918 11.194 14.7404 9.34056 12.4905 9.34056C10.2421 9.34056 8.40833 11.194 8.40833 13.4238Z" fill="#3685FB"/>
</g>
</svg>
