<svg width="31" height="31" viewBox="0 0 31 31" fill="none" xmlns="http://www.w3.org/2000/svg">
<g id="Time Circle">
<path id="Time Circle_2" fill-rule="evenodd" clip-rule="evenodd" d="M15.5001 30.0827C7.45008 30.0827 0.916748 23.5639 0.916748 15.4993C0.916748 7.44935 7.45008 0.916016 15.5001 0.916016C23.5647 0.916016 30.0834 7.44935 30.0834 15.4993C30.0834 23.5639 23.5647 30.0827 15.5001 30.0827ZM20.1522 20.9098C20.3272 21.0118 20.5167 21.0702 20.7209 21.0702C21.0855 21.0702 21.4501 20.8806 21.6542 20.5306C21.9605 20.0202 21.8001 19.3493 21.2751 19.0285L16.0834 15.9368V9.19935C16.0834 8.58685 15.5876 8.1056 14.9897 8.1056C14.3917 8.1056 13.8959 8.58685 13.8959 9.19935V16.5639C13.8959 16.9431 14.1001 17.2931 14.4355 17.4973L20.1522 20.9098Z" fill="#3685FB"/>
</g>
</svg>
