<svg width="35" height="35" viewBox="0 0 35 35" fill="none" xmlns="http://www.w3.org/2000/svg">
<g id="dollar-symbol_icon-icons.com_73598 1">
<g id="Group">
<path id="Vector" d="M24.5663 20.9915C24.4175 20.4668 24.2369 20.0101 24.0249 19.6223C23.813 19.2342 23.5095 18.8555 23.1138 18.4852C22.7186 18.115 22.3631 17.8169 22.0478 17.5902C21.7328 17.3634 21.3 17.1098 20.7497 16.8291C20.1999 16.5485 19.7643 16.3397 19.4436 16.2023C19.1226 16.0652 18.6581 15.8772 18.0506 15.6385C17.5119 15.4237 17.1109 15.2596 16.847 15.1462C16.5834 15.0328 16.2368 14.8718 15.807 14.6628C15.3773 14.4541 15.0563 14.2689 14.8443 14.1079C14.6322 13.9469 14.4059 13.75 14.1652 13.5172C13.9244 13.2845 13.7554 13.0368 13.6579 12.7743C13.5606 12.5116 13.5119 12.2251 13.5119 11.9148C13.5119 11.1033 13.8556 10.4406 14.5433 9.92755C15.231 9.41446 16.1194 9.15779 17.2084 9.15779C17.6895 9.15779 18.18 9.22633 18.6783 9.36373C19.1765 9.50112 19.6035 9.65589 19.9589 9.82909C20.3145 10.0023 20.6496 10.1933 20.9649 10.4021C21.2802 10.611 21.5036 10.769 21.6355 10.8765C21.7673 10.984 21.8509 11.0555 21.8849 11.0914C22.0341 11.2107 22.1884 11.2524 22.3489 11.2167C22.5208 11.2048 22.6527 11.1092 22.7446 10.9303L24.1375 8.31635C24.2749 8.07774 24.2465 7.85092 24.0515 7.63595C23.9826 7.56433 23.897 7.48087 23.7931 7.3853C23.6903 7.28973 23.4667 7.11671 23.1225 6.86594C22.7788 6.61535 22.4149 6.39154 22.0312 6.19457C21.647 5.99778 21.1483 5.79774 20.535 5.59494C19.9221 5.39182 19.2887 5.25468 18.6352 5.18312V2.0319C18.6352 1.8649 18.5837 1.72757 18.4809 1.62009C18.3778 1.51285 18.2459 1.45898 18.0852 1.45898H15.764C15.615 1.45898 15.4861 1.51561 15.3772 1.62905C15.2684 1.74249 15.2139 1.87669 15.2139 2.0319V5.25461C13.4144 5.61256 11.953 6.4123 10.8298 7.65363C9.70663 8.89503 9.14486 10.339 9.14486 11.9864C9.14486 12.4757 9.19376 12.9412 9.29119 13.3826C9.3885 13.8244 9.50894 14.2213 9.65225 14.5733C9.79545 14.9256 9.99899 15.2717 10.2626 15.6119C10.5261 15.9521 10.7755 16.2445 11.0104 16.4891C11.2454 16.7336 11.5521 16.9873 11.9302 17.2498C12.3085 17.5126 12.6323 17.7246 12.9017 17.8857C13.1712 18.0462 13.5293 18.2318 13.9762 18.4402C14.4232 18.6492 14.7758 18.8072 15.0337 18.9148C15.2916 19.0221 15.644 19.1715 16.0912 19.3621C16.71 19.6127 17.1686 19.8068 17.4666 19.9441C17.7648 20.0814 18.1429 20.2724 18.6016 20.5171C19.0599 20.7615 19.395 20.9854 19.6073 21.1884C19.8193 21.3914 20.0112 21.642 20.1832 21.9403C20.3553 22.2386 20.4415 22.555 20.4415 22.8893C20.4415 23.8323 20.089 24.5602 19.3839 25.0731C18.6791 25.5865 17.8622 25.8431 16.9339 25.8431C16.5102 25.8431 16.0858 25.7956 15.6619 25.7002C14.1719 25.3894 12.7793 24.6434 11.4841 23.4619L11.4498 23.4261C11.3465 23.2951 11.209 23.2413 11.0372 23.2653C10.8538 23.2892 10.7219 23.3608 10.6418 23.4804L8.87087 25.8973C8.69888 26.1359 8.71051 26.3806 8.90531 26.6312C8.9627 26.7029 9.06296 26.8106 9.20616 26.9535C9.34972 27.0971 9.61624 27.3205 10.0057 27.6255C10.3953 27.93 10.8195 28.2161 11.278 28.485C11.7365 28.7534 12.3181 29.0189 13.0231 29.2816C13.7282 29.5438 14.4587 29.7288 15.2152 29.8361V32.9693C15.2152 33.1247 15.2697 33.2588 15.3785 33.3723C15.4874 33.4859 15.6163 33.5423 15.7653 33.5423H18.0864C18.2472 33.5423 18.3791 33.4887 18.4821 33.3814C18.5851 33.2741 18.6364 33.1368 18.6364 32.9693V29.8362C20.4592 29.5259 21.9406 28.7112 23.0809 27.3923C24.2213 26.0733 24.7917 24.5007 24.7917 22.6747C24.7911 22.078 24.7167 21.517 24.5663 20.9915Z" fill="#3685FB"/>
</g>
</g>
</svg>
