<svg width="35" height="35" viewBox="0 0 35 35" fill="none" xmlns="http://www.w3.org/2000/svg">
<g id="dollar-symbol_icon-icons.com_73598 1">
<g id="Group">
<path id="Vector" d="M24.5663 20.9895C24.4175 20.4648 24.2369 20.0082 24.0249 19.6204C23.813 19.2322 23.5095 18.8536 23.1138 18.4832C22.7186 18.113 22.3631 17.8149 22.0478 17.5883C21.7328 17.3615 21.3 17.1079 20.7497 16.8272C20.1999 16.5465 19.7643 16.3377 19.4436 16.2004C19.1226 16.0632 18.6581 15.8752 18.0506 15.6365C17.5119 15.4218 17.1109 15.2576 16.847 15.1443C16.5834 15.0309 16.2368 14.8698 15.807 14.6608C15.3773 14.4521 15.0563 14.267 14.8443 14.1059C14.6322 13.9449 14.4059 13.748 14.1652 13.5153C13.9244 13.2826 13.7554 13.0349 13.6579 12.7723C13.5606 12.5097 13.5119 12.2232 13.5119 11.9128C13.5119 11.1013 13.8556 10.4387 14.5433 9.9256C15.231 9.41251 16.1194 9.15583 17.2084 9.15583C17.6895 9.15583 18.18 9.22438 18.6783 9.36177C19.1765 9.49917 19.6035 9.65394 19.9589 9.82714C20.3145 10.0003 20.6496 10.1914 20.9649 10.4001C21.2802 10.6091 21.5036 10.7671 21.6355 10.8745C21.7673 10.982 21.8509 11.0536 21.8849 11.0894C22.0341 11.2088 22.1884 11.2505 22.3489 11.2148C22.5208 11.2029 22.6527 11.1072 22.7446 10.9284L24.1375 8.3144C24.2749 8.07579 24.2465 7.84896 24.0515 7.634C23.9826 7.56238 23.897 7.47892 23.7931 7.38335C23.6903 7.28778 23.4667 7.11476 23.1225 6.86398C22.7788 6.6134 22.4149 6.38959 22.0312 6.19261C21.647 5.99583 21.1483 5.79579 20.535 5.59298C19.9221 5.38987 19.2887 5.25272 18.6352 5.18117V2.02995C18.6352 1.86295 18.5837 1.72562 18.4809 1.61813C18.3778 1.5109 18.2459 1.45703 18.0852 1.45703H15.764C15.615 1.45703 15.4861 1.51366 15.3772 1.6271C15.2684 1.74054 15.2139 1.87474 15.2139 2.02995V5.25266C13.4144 5.61061 11.953 6.41034 10.8298 7.65168C9.70663 8.89308 9.14486 10.3371 9.14486 11.9844C9.14486 12.4737 9.19376 12.9392 9.29119 13.3806C9.3885 13.8224 9.50894 14.2193 9.65225 14.5714C9.79545 14.9237 9.99899 15.2697 10.2626 15.61C10.5261 15.9501 10.7755 16.2426 11.0104 16.4872C11.2454 16.7317 11.5521 16.9854 11.9302 17.2479C12.3085 17.5106 12.6323 17.7227 12.9017 17.8837C13.1712 18.0442 13.5293 18.2299 13.9762 18.4382C14.4232 18.6473 14.7758 18.8052 15.0337 18.9129C15.2916 19.0202 15.644 19.1696 16.0912 19.3601C16.71 19.6108 17.1686 19.8048 17.4666 19.9421C17.7648 20.0795 18.1429 20.2704 18.6016 20.5151C19.0599 20.7596 19.395 20.9834 19.6073 21.1864C19.8193 21.3894 20.0112 21.6401 20.1832 21.9384C20.3553 22.2367 20.4415 22.553 20.4415 22.8874C20.4415 23.8303 20.089 24.5583 19.3839 25.0711C18.6791 25.5845 17.8622 25.8411 16.9339 25.8411C16.5102 25.8411 16.0858 25.7936 15.6619 25.6982C14.1719 25.3875 12.7793 24.6415 11.4841 23.4599L11.4498 23.4241C11.3465 23.2932 11.209 23.2394 11.0372 23.2634C10.8538 23.2872 10.7219 23.3589 10.6418 23.4785L8.87087 25.8953C8.69888 26.134 8.71051 26.3786 8.90531 26.6293C8.9627 26.7009 9.06296 26.8086 9.20616 26.9516C9.34972 27.0951 9.61624 27.3186 10.0057 27.6235C10.3953 27.928 10.8195 28.2141 11.278 28.483C11.7365 28.7515 12.3181 29.0169 13.0231 29.2796C13.7282 29.5419 14.4587 29.7268 15.2152 29.8342V32.9673C15.2152 33.1227 15.2697 33.2569 15.3785 33.3704C15.4874 33.4839 15.6163 33.5404 15.7653 33.5404H18.0864C18.2472 33.5404 18.3791 33.4867 18.4821 33.3794C18.5851 33.2722 18.6364 33.1348 18.6364 32.9674V29.8342C20.4592 29.5239 21.9406 28.7093 23.0809 27.3903C24.2213 26.0713 24.7917 24.4988 24.7917 22.6727C24.7911 22.076 24.7167 21.515 24.5663 20.9895Z" fill="#3685FB"/>
</g>
</g>
</svg>
