<svg width="14" height="14" viewBox="0 0 14 14" fill="none" xmlns="http://www.w3.org/2000/svg">
<path d="M8.8767 1.00148C8.81244 1.00763 8.75126 1.0213 8.70341 1.04044C8.51542 1.11564 8.3828 1.27526 8.34281 1.47486C8.33632 1.50802 8.33529 1.52443 8.33529 1.5839C8.33529 1.64679 8.33632 1.65841 8.34452 1.69703C8.39442 1.93321 8.56771 2.10445 8.80697 2.15538L8.84423 2.16324L9.92602 2.16427L11.0078 2.16495L8.57558 4.59786C5.91161 7.26217 6.1119 7.0588 6.06576 7.14835C5.99228 7.29122 5.97997 7.45016 6.0309 7.60465C6.04423 7.64464 6.0808 7.71608 6.10712 7.75333C6.13686 7.79503 6.20316 7.86134 6.24486 7.89108C6.28144 7.91705 6.35287 7.95362 6.39354 7.96695C6.58085 8.02985 6.77465 7.99772 6.93871 7.87706C6.95546 7.86476 7.80756 7.01539 9.39862 5.42433L11.8332 2.99039L11.8343 4.07389L11.835 5.15738L11.8442 5.19874C11.8975 5.43663 12.0715 5.60753 12.309 5.65538C12.3647 5.66666 12.4666 5.66666 12.523 5.65538C12.7821 5.60377 12.9687 5.39801 12.9954 5.13551C13.0001 5.08663 13.0001 1.58356 12.9954 1.53126C12.9861 1.43556 12.9547 1.34361 12.9044 1.26671C12.8057 1.11529 12.6477 1.01993 12.4673 1.00284C12.442 1.00045 11.8568 0.999767 10.6592 1.00011C9.68539 1.00011 8.88319 1.00113 8.8767 1.00148Z" fill="#033279" stroke="#033279" stroke-width="0.5"/>
<path d="M3.38715 2.921C3.38065 2.92168 3.35604 2.92407 3.33246 2.92578C3.18344 2.93843 3.00912 2.98013 2.86249 3.03755C2.3368 3.24434 1.94203 3.69175 1.80463 4.23623C1.78002 4.33433 1.76635 4.41636 1.75609 4.5271C1.7496 4.59854 1.7496 10.5714 1.75609 10.6418C1.77797 10.8743 1.83368 11.0749 1.93075 11.2711C1.9704 11.3511 1.99227 11.3897 2.03636 11.457C2.16727 11.657 2.33612 11.8269 2.53436 11.9578C2.78456 12.1232 3.05082 12.2151 3.36151 12.2438C3.40013 12.2476 3.98495 12.2483 6.42059 12.2483C9.29203 12.2483 9.43456 12.2479 9.49164 12.2421C9.71517 12.2192 9.90214 12.1673 10.0918 12.0757C10.2757 11.9868 10.4285 11.8778 10.5734 11.7325C10.8687 11.4355 11.0451 11.05 11.0776 10.6302C11.08 10.5995 11.081 10.1674 11.081 9.3502C11.081 8.26841 11.0803 8.11187 11.0759 8.08179C11.0407 7.84937 10.8745 7.66411 10.6469 7.60327C10.5789 7.58516 10.4955 7.58003 10.4247 7.58926C10.1657 7.62378 9.96298 7.82339 9.92401 8.08179C9.91957 8.11187 9.91888 8.26396 9.91888 9.30747C9.91888 10.0939 9.91786 10.5137 9.91547 10.5424C9.90043 10.7276 9.80814 10.8845 9.65399 10.9874C9.57469 11.04 9.4889 11.0708 9.39183 11.0811C9.34569 11.0858 3.48353 11.0858 3.4391 11.0807C3.33861 11.0698 3.24359 11.0339 3.16156 10.9758C3.11986 10.9464 3.05355 10.8801 3.02416 10.8384C2.96469 10.7546 2.92914 10.6589 2.91888 10.5564C2.91615 10.5291 2.91547 9.69985 2.91615 7.55713C2.91752 4.76807 2.91786 4.59375 2.92333 4.56641C2.95717 4.39927 3.04603 4.26597 3.18173 4.1771C3.26444 4.12344 3.35502 4.09268 3.45687 4.08447C3.48627 4.08208 3.89745 4.08105 4.69247 4.08105C5.99061 4.08105 5.90927 4.08208 5.98446 4.06226C6.14408 4.01953 6.27875 3.90981 6.35326 3.76147C6.43632 3.5957 6.43632 3.4043 6.35326 3.23853C6.26815 3.06899 6.10717 2.95278 5.91815 2.92407C5.88807 2.91963 5.73256 2.91895 4.64154 2.91963C3.95829 2.91997 3.39364 2.92065 3.38715 2.921Z" fill="#033279" stroke="#033279" stroke-width="0.5"/>
</svg>
