<svg width="18" height="18" viewBox="0 0 18 18" fill="none" xmlns="http://www.w3.org/2000/svg">
<g id="Logo 2">
<path id="Vector" d="M6.33304 8.99998C6.33304 7.52728 7.52729 6.33311 9.00087 6.33311C10.4745 6.33311 11.6693 7.52728 11.6693 8.99998C11.6693 10.4727 10.4745 11.6669 9.00087 11.6669C7.52729 11.6669 6.33304 10.4727 6.33304 8.99998ZM4.89051 8.99998C4.89051 11.2688 6.73072 13.1079 9.00087 13.1079C11.271 13.1079 13.1112 11.2688 13.1112 8.99998C13.1112 6.73118 11.271 4.89209 9.00087 4.89209C6.73072 4.89209 4.89051 6.73118 4.89051 8.99998ZM12.3134 4.72921C12.3133 4.91908 12.3696 5.1047 12.475 5.26262C12.5805 5.42053 12.7305 5.54363 12.906 5.61636C13.0815 5.6891 13.2746 5.70818 13.461 5.67122C13.6473 5.63425 13.8185 5.54289 13.9529 5.40868C14.0873 5.27448 14.1789 5.10346 14.216 4.91725C14.2531 4.73105 14.2342 4.53802 14.1616 4.36257C14.0889 4.18712 13.9659 4.03714 13.8079 3.93159C13.65 3.82605 13.4643 3.76967 13.2743 3.76959H13.274C13.0193 3.76971 12.7751 3.87084 12.595 4.05076C12.4149 4.23069 12.3136 4.4747 12.3134 4.72921ZM5.76694 15.5118C4.98651 15.4762 4.56232 15.3463 4.28042 15.2366C3.9067 15.0912 3.64004 14.918 3.35968 14.6382C3.07932 14.3584 2.90578 14.0921 2.76092 13.7186C2.65103 13.437 2.52104 13.013 2.48556 12.233C2.44675 11.3897 2.439 11.1364 2.439 9.00004C2.439 6.86366 2.44739 6.61106 2.48556 5.76709C2.5211 4.98713 2.65206 4.56389 2.76092 4.28146C2.90642 3.90796 3.07971 3.64147 3.35968 3.36127C3.63966 3.08108 3.90605 2.90764 4.28042 2.76288C4.56219 2.65305 4.98651 2.52313 5.76694 2.48768C6.61071 2.44889 6.86417 2.44115 9.00087 2.44115C11.1376 2.44115 11.3913 2.44953 12.2358 2.48768C13.0162 2.5232 13.4397 2.65408 13.7223 2.76288C14.096 2.90764 14.3627 3.08147 14.643 3.36127C14.9234 3.64108 15.0963 3.90796 15.2418 4.28146C15.3517 4.56306 15.4817 4.98713 15.5171 5.76709C15.556 6.61106 15.5637 6.86366 15.5637 9.00004C15.5637 11.1364 15.556 11.389 15.5171 12.233C15.4816 13.013 15.351 13.4369 15.2418 13.7186C15.0963 14.0921 14.923 14.3586 14.643 14.6382C14.363 14.9177 14.096 15.0912 13.7223 15.2366C13.4405 15.3464 13.0162 15.4763 12.2358 15.5118C11.392 15.5506 11.1385 15.5583 9.00087 15.5583C6.86321 15.5583 6.61045 15.5506 5.76694 15.5118ZM5.70066 1.04845C4.84851 1.08723 4.26621 1.22227 3.75768 1.42003C3.23103 1.62425 2.78519 1.89824 2.33968 2.34278C1.89417 2.78732 1.62072 3.23359 1.41638 3.75993C1.2185 4.26847 1.08338 4.8501 1.04457 5.70175C1.00512 6.55474 0.996094 6.82744 0.996094 8.99998C0.996094 11.1725 1.00512 11.4452 1.04457 12.2982C1.08338 13.1499 1.2185 13.7315 1.41638 14.24C1.62072 14.766 1.89423 15.2128 2.33968 15.6572C2.78513 16.1015 3.23103 16.3751 3.75768 16.5799C4.26717 16.7777 4.84851 16.9127 5.70066 16.9515C6.55461 16.9903 6.82703 17 9.00087 17C11.1747 17 11.4476 16.9909 12.3011 16.9515C13.1533 16.9127 13.7352 16.7777 14.2441 16.5799C14.7704 16.3751 15.2166 16.1017 15.6621 15.6572C16.1076 15.2126 16.3804 14.766 16.5854 14.24C16.7832 13.7315 16.919 13.1499 16.9572 12.2982C16.996 11.4446 17.005 11.1725 17.005 8.99998C17.005 6.82744 16.996 6.55474 16.9572 5.70175C16.9184 4.85004 16.7832 4.26815 16.5854 3.75993C16.3804 3.23391 16.1069 2.78803 15.6621 2.34278C15.2173 1.89753 14.7704 1.62425 14.2447 1.42003C13.7352 1.22227 13.1532 1.08659 12.3017 1.04845C11.4482 1.00966 11.1754 1 9.00151 1C6.82767 1 6.55461 1.00902 5.70066 1.04845Z" fill="white" stroke="white" stroke-width="0.3"/>
</g>
</svg>
