<svg width="19" height="18" viewBox="0 0 19 18" fill="none" xmlns="http://www.w3.org/2000/svg">
<path d="M8.38898 1.31404C8.84229 -0.0589114 10.7844 -0.0589124 11.2377 1.31404L12.3251 4.60757C12.5281 5.22216 13.1023 5.63729 13.7495 5.63729H17.2167C18.6756 5.63729 19.2759 7.50896 18.0892 8.35748L15.3257 10.3333C14.7915 10.7152 14.5679 11.4002 14.7738 12.0238L15.839 15.2502C16.2939 16.628 14.7225 17.7846 13.5422 16.9407L10.6858 14.8983C10.164 14.5253 9.46271 14.5253 8.94092 14.8983L6.08446 16.9407C4.9042 17.7846 3.33277 16.628 3.78766 15.2502L4.85293 12.0238C5.05881 11.4002 4.83516 10.7152 4.30098 10.3333L1.53755 8.35748C0.350783 7.50896 0.951067 5.63729 2.40997 5.63729H5.87718C6.5244 5.63729 7.09863 5.22216 7.30155 4.60757L8.38898 1.31404Z" fill="#E5E5E5"/>
</svg>
