<?xml version="1.0" encoding="UTF-8"?><svg id="Livello_2" xmlns="http://www.w3.org/2000/svg" viewBox="0 0 73.78 73.81"><g id="Livello_1-2"><path d="M72.44,68l-17.5-17.26c.29-.43,.59-.84,.88-1.26,.93-1.32,1.89-2.68,2.69-4.1,3.63-6.32,4.79-13.72,3.26-20.83-1.16-5.76-3.97-10.99-8.12-15.11C49.19,4.81,43.48,1.75,37.17,.58c-.9-.17-1.82-.29-2.71-.41-.41-.05-.81-.1-1.22-.16h-4.11s-.13,0-.13,0c-.43,.07-.86,.13-1.3,.19-.81,.11-1.62,.22-2.43,.37-6.38,1.18-12.12,4.27-16.6,8.94C4.61,13.61,1.84,18.77,.67,24.42c-.17,.81-.28,1.63-.38,2.43-.05,.39-.1,.77-.16,1.17,0,.04-.02,.09-.03,.13-.04,.15-.1,.35-.1,.59v3.92l.08,.65c.09,.69,.17,1.34,.28,2.03,.94,6.21,3.75,11.88,8.12,16.36,5.59,5.96,13.48,9.49,21.63,9.69,6.36,.27,12.54-1.39,17.88-4.81,.69-.43,1.36-.9,2.01-1.35l.24-.16,17.67,17.43c.08,.1,.16,.2,.26,.3,.65,.67,1.51,1.01,2.38,1.01s1.66-.31,2.31-.93c.62-.61,.94-1.35,.94-2.13,0-.93-.46-1.88-1.34-2.74ZM56.02,30.61c.05,8.52-4.48,16.48-11.87,20.8-7.47,4.78-16.91,5.06-24.68,.7-6.58-3.26-11.27-9.52-12.54-16.79-1.5-7.07,.43-14.56,5.19-20.04,3.86-4.74,9.32-7.79,15.4-8.6,1.32-.22,2.63-.32,3.95-.32,4.76,0,9.43,1.41,13.46,4.11,5.78,3.67,9.68,9.66,10.69,16.45,.15,.87,.22,1.75,.3,2.6,.03,.38,.07,.75,.1,1.1Z"/></g></svg>