<svg xmlns="http://www.w3.org/2000/svg" width="13.333" height="9.302" viewBox="0 0 13.333 9.302">
  <g id="noun_Blog_3570312" data-name="noun Blog 3570312" transform="translate(-564.056 -641.547)">
    <path id="Path_17214" data-name="Path 17214" d="M572.463,643.078h-8.188a.207.207,0,0,0,0,.413h8.188a.207.207,0,0,0,0-.413Z"/>
    <path id="Path_17215" data-name="Path 17215" d="M564.275,645.945h5.057a.207.207,0,0,0,0-.413h-5.057a.207.207,0,0,0,0,.413Z"/>
    <path id="Path_17216" data-name="Path 17216" d="M564.275,648.4h5.057a.206.206,0,0,0,0-.412h-5.057a.206.206,0,1,0-.026.412Z"/>
    <path id="Path_17217" data-name="Path 17217" d="M564.275,650.849h8.188a.206.206,0,0,0,0-.412h-8.188a.206.206,0,1,0-.026.412Z"/>
    <path id="Path_17218" data-name="Path 17218" d="M577.228,642.257l-.573-.56a.467.467,0,0,0-.32-.15.141.141,0,0,0-.105.039l-.706.746,1.107,1.127.724-.763C577.424,642.618,577.388,642.414,577.228,642.257Z"/>
    <path id="Path_17219" data-name="Path 17219" d="M575.24,642.628l-4.512,4.777-.143,1.3,1.266-.2,4.5-4.759Z"/>
  </g>
</svg>
