<?xml version="1.0" encoding="UTF-8"?><svg id="Livello_2" xmlns="http://www.w3.org/2000/svg" xmlns:xlink="http://www.w3.org/1999/xlink" viewBox="0 0 23 11.54"><defs><style>.cls-1{fill:none;}.cls-2{clip-path:url(#clippath);}.cls-3{fill:#272720;}</style><clipPath id="clippath"><rect class="cls-1" width="23" height="11.54"/></clipPath></defs><g id="Livello_1-2"><g class="cls-2"><g id="Raggruppa_8932-2"><path id="Tracciato_27034" class="cls-3" d="m0,5.68c.12-.37.4-.44.74-.44h20.46c-.1-.1-.15-.17-.21-.23l-3.99-3.99s-.08-.08-.12-.13c-.22-.19-.24-.51-.05-.73.19-.22.51-.24.73-.05.02.01.03.03.05.05.05.04.1.09.15.14l4.97,4.97c.37.37.37.62,0,.99l-5.05,5.05c-.17.24-.51.3-.75.13-.01,0-.03-.02-.04-.03-.2-.17-.23-.46-.08-.67.07-.09.14-.17.22-.25,1.32-1.33,2.65-2.65,3.97-3.97.06-.06.11-.12.21-.22h-.33c-6.72,0-13.44,0-20.15,0-.3.04-.6-.12-.73-.4v-.22Z"/></g></g></g></svg>