<svg id="Сгруппировать_5338" data-name="Сгруппировать 5338" xmlns="http://www.w3.org/2000/svg" xmlns:xlink="http://www.w3.org/1999/xlink" width="259.757" height="369.886" viewBox="0 0 259.757 369.886">
  <defs>
    <clipPath id="clip-path">
      <rect id="Прямоугольник_482" data-name="Прямоугольник 482" width="259.757" height="369.886" fill="none"/>
    </clipPath>
  </defs>
  <g id="Сгруппировать_5336" data-name="Сгруппировать 5336" clip-path="url(#clip-path)">
    <path id="Контур_23778" data-name="Контур 23778" d="M259.757,144.282V15.875h-.037A17.879,17.879,0,0,1,241.957,0H17.1A17.879,17.879,0,0,1,.046,15.854V69.325H0V331.092H.046v22.919H.083a17.879,17.879,0,0,1,17.763,15.875H242.7a17.878,17.878,0,0,1,17.057-15.854V225.6h-.223V144.282Z" fill="#fff"/>
    <path id="Контур_23779" data-name="Контур 23779" d="M255.08,18.24a16.888,16.888,0,0,1-16.029-14.9L239,2.907H20.713l-.049.432A16.774,16.774,0,0,1,3.97,18.258H3.5l-.052.468v331.84l.052.468h.47a16.774,16.774,0,0,1,16.694,14.919l.049.432H239l.049-.433a16.888,16.888,0,0,1,16.029-14.9l.466-.019V18.259Zm-.509,48.425V350.107a17.769,17.769,0,0,0-16.437,15.31H21.578A17.65,17.65,0,0,0,4.421,350.073V19.219A17.651,17.651,0,0,0,21.578,3.875H238.134a17.769,17.769,0,0,0,16.437,15.31v47.48Z" fill="#8a8a85"/>
  </g>
</svg>
