<svg xmlns="http://www.w3.org/2000/svg" width="14" height="11.771" viewBox="0 0 14 11.771">
  <path id="Контур_16099" data-name="Контур 16099" d="M13.507,24.458h.479l1.362,6.405a.289.289,0,0,0,.288.23h9.244a.305.305,0,0,0,.288-.23l1.362-6.405h.384a.3.3,0,0,0,.288-.288V22.789a.3.3,0,0,0-.288-.288H24.726l-2.014-3.049a.284.284,0,0,0-.4-.077.281.281,0,0,0-.077.4l1.8,2.723H16.479l1.8-2.723a.29.29,0,1,0-.479-.326L15.789,22.5h-2.3a.3.3,0,0,0-.288.288V24.17A.3.3,0,0,0,13.507,24.458Zm11.142,6.06H15.866l-1.3-6.041H25.934ZM13.795,23.077h1.63l-.153.211a.284.284,0,0,0,.077.4.231.231,0,0,0,.153.038.279.279,0,0,0,.249-.134l.345-.537h8.3l.345.537a.328.328,0,0,0,.249.134.361.361,0,0,0,.153-.038.284.284,0,0,0,.077-.4l-.134-.211h1.534v.805H13.756v-.805Z" transform="translate(-13.2 -19.322)"/>
</svg>
