<svg id="Сгруппировать_78" data-name="Сгруппировать 78" xmlns="http://www.w3.org/2000/svg" xmlns:xlink="http://www.w3.org/1999/xlink" width="261.627" height="342.412" viewBox="0 0 261.627 342.412">
  <defs>
    <clipPath id="clip-path">
      <rect id="Прямоугольник_46" data-name="Прямоугольник 46" width="261.627" height="342.412" fill="none" stroke="#f4f0e7" stroke-width="1"/>
    </clipPath>
  </defs>
  <g id="Сгруппировать_61" data-name="Сгруппировать 61" clip-path="url(#clip-path)">
    <path id="Контур_79" data-name="Контур 79" d="M189.6,341.782a14.22,14.22,0,0,0-2.06-.3q-56.344-.022-112.689,0a16.166,16.166,0,0,0-1.733.293,1.46,1.46,0,0,1-.829-.132,3.618,3.618,0,0,1-.7-.665q-35-35-70.018-69.984A3.412,3.412,0,0,1,.5,268.343q.034-96.814,0-193.63a3.27,3.27,0,0,1,1.03-2.551Q36.521,37.234,71.46,2.258c.421-.422.758-.928,1.172-1.356a1.226,1.226,0,0,1,.674-.357A12.067,12.067,0,0,1,74.758.517Q131.041.516,187.325.5a3.91,3.91,0,0,1,3.209,1.293c5.638,5.84,11.432,11.529,17.173,17.269q26.518,26.518,53.045,53.027a2.035,2.035,0,0,1,.829,2.07,4.6,4.6,0,0,0-.014,1.087q0,96.149.049,192.3a5.608,5.608,0,0,1-1.837,4.432q-34.43,34.3-68.751,68.7a13.108,13.108,0,0,0-1.158,1.553Z" transform="translate(-0.257 -0.258)" fill="none" stroke="#f4f0e7" stroke-miterlimit="10" stroke-width="1"/>
  </g>
</svg>
