<svg xmlns="http://www.w3.org/2000/svg" width="48.566" height="60.56" viewBox="0 0 48.566 60.56">
  <g id="Layer_2" data-name="Layer 2" transform="translate(-0.004)">
    <g id="Layer_1" data-name="Layer 1">
      <path id="Контур_28" data-name="Контур 28" d="M3.51,60.56V40.55h.82V59.02L47.09,30.28,4.33,1.54V19.72H3.51V0L48.57,30.28Z" fill="#fefbf6"/>
      <path id="Контур_29" data-name="Контур 29" d="M7.61,29.89c-2-1.14-3.25-3.87-3.25-6.95a.45.45,0,1,0-.89,0c0,3.08-1.27,5.81-3.25,7a.46.46,0,0,0,0,.78c2,1.14,3.25,3.87,3.25,6.95a.45.45,0,1,0,.89,0c0-3.08,1.28-5.81,3.25-6.95a.45.45,0,0,0,0-.78Z" fill="#fefbf6" fill-rule="evenodd"/>
    </g>
  </g>
</svg>
