<svg xmlns="http://www.w3.org/2000/svg" width="9.716" height="12.268" viewBox="0 0 9.716 12.268">
  <g id="Сгруппировать_1145" data-name="Сгруппировать 1145" transform="translate(-257.211 -1608.752)">
    <path id="Контур_28" data-name="Контур 28" d="M3.51,11.892V7.963h.161V11.59l8.4-5.644L3.671.3v3.57H3.51V0l8.849,5.946Z" transform="translate(254.389 1608.94)" fill="#3f393a" stroke="#3f393a" stroke-width="0.2"/>
    <path id="Контур_29" data-name="Контур 29" d="M1.5,23.889a1.55,1.55,0,0,1-.638-1.365.088.088,0,1,0-.175,0A1.59,1.59,0,0,1,.046,23.9a.09.09,0,0,0,0,.153,1.55,1.55,0,0,1,.638,1.365.088.088,0,1,0,.175,0A1.564,1.564,0,0,1,1.5,24.052a.088.088,0,0,0,0-.153Z" transform="translate(257.207 1590.92)" fill="#3f393a" fill-rule="evenodd"/>
  </g>
</svg>
