<svg id="Сгруппировать_19" data-name="Сгруппировать 19" xmlns="http://www.w3.org/2000/svg" xmlns:xlink="http://www.w3.org/1999/xlink" width="594.053" height="105.279" viewBox="0 0 594.053 105.279">
  <defs>
    <clipPath id="clip-path">
      <rect id="Прямоугольник_8" data-name="Прямоугольник 8" width="594.053" height="105.279" fill="none" stroke="#fff" stroke-width="1"/>
    </clipPath>
  </defs>
  <g id="Сгруппировать_17" data-name="Сгруппировать 17" clip-path="url(#clip-path)">
    <path id="Контур_23" data-name="Контур 23" d="M1295.08,51.4q0-23.378-.008-46.756a4.212,4.212,0,0,1,2.667-4.32,3.951,3.951,0,0,1,1.49-.267c17.936.01,35.873-.042,53.808.1a53.144,53.144,0,0,1,19.632,3.7c9,3.634,15.034,10,17.551,19.439a38.487,38.487,0,0,1,.226,18.178,30.361,30.361,0,0,1-6.2,13.274,28,28,0,0,1-13.863,8.913c-1.491.453-3.034.738-4.53,1.175-.48.14-1.121.435-1.263.817a1.783,1.783,0,0,0,.485,1.392q10.65,12.275,21.349,24.506c1.885,2.161,3.753,4.337,5.665,6.475a2.759,2.759,0,0,1,.613,3.157,2.652,2.652,0,0,1-2.786,1.58c-6.478.021-12.957.038-19.434.107a4.887,4.887,0,0,1-4.064-1.9q-13.876-16.678-27.772-33.34a2.979,2.979,0,0,0-2.538-1.187c-5.617.036-11.234.016-16.852.017-1.25,0-1.251,0-1.251,1.273,0,10.135-.062,20.271.039,30.4a4.506,4.506,0,0,1-4.73,4.776c-4.5-.091-9-.018-13.5-.028-3.071-.007-4.73-1.668-4.731-4.726q0-23.378,0-46.756m40.131-1.742c2.234,0,4.468.03,6.7-.007,4.4-.071,8.808-.025,13.145-.958a16.5,16.5,0,0,0,7.69-3.63,15,15,0,0,0,4.943-10.917c.374-6.479-2.683-11.9-8.676-14.307a31.063,31.063,0,0,0-11.245-2c-9.189-.133-18.381-.093-27.571-.118-1.72,0-2.2.483-2.2,2.223q0,13.625,0,27.248c0,2.019.441,2.465,2.464,2.467q7.372,0,14.744,0" transform="translate(-798.902 -0.033)" fill="none" stroke="#fff" stroke-width="1"/>
    <path id="Контур_24" data-name="Контур 24" d="M424.868,51.466q0,23.235-.018,46.47a6.663,6.663,0,0,1-.452,2.592,3.687,3.687,0,0,1-3.485,2.286c-4.978.053-9.958.062-14.936,0a4.1,4.1,0,0,1-4.037-4.334q-.008-19.362,0-38.724c0-2.086-.37-2.458-2.438-2.458H350.092c-1.982,0-2.4.415-2.4,2.416q0,19.028-.015,38.055a7.048,7.048,0,0,1-.315,2.439,3.846,3.846,0,0,1-3.764,2.613q-7.372.076-14.745,0a4.1,4.1,0,0,1-4.1-4.281q-.009-47.139,0-94.277a4.082,4.082,0,0,1,4.2-4.247q7.277-.033,14.554,0a4.009,4.009,0,0,1,4.137,3.9c.038.475.039.955.039,1.433q0,16.111,0,32.222c0,1.921.447,2.37,2.362,2.37q24.751,0,49.5,0c1.913,0,2.378-.462,2.378-2.35q0-16.493,0-32.988c0-2.962,1.638-4.586,4.632-4.589q6.846-.007,13.692,0c3.009,0,4.6,1.586,4.6,4.6q.009,23.426,0,46.852" transform="translate(-200.332 0)" fill="none" stroke="#fff" stroke-width="1"/>
    <path id="Контур_25" data-name="Контур 25" d="M1045.8,36.171q0,12.477,0,24.953a73.988,73.988,0,0,1-.814,12.669c-2.231,12.789-9.172,21.948-21.125,27.17a49.186,49.186,0,0,1-16.316,3.794c-4.449.317-8.915.5-13.375.525a82.068,82.068,0,0,1-17.589-1.665c-10.131-2.159-18.564-6.935-24.362-15.764A35.543,35.543,0,0,1,947.07,74.6a70.083,70.083,0,0,1-.983-12.747q-.005-28.587-.006-57.174A4.247,4.247,0,0,1,948.7.321a4.2,4.2,0,0,1,1.578-.293q7.276-.033,14.552-.008a4.027,4.027,0,0,1,4.191,4.044c.02.414.008.829.008,1.243q0,28.3.012,56.6A33.721,33.721,0,0,0,970.7,73.481a19.13,19.13,0,0,0,12.809,12.163c6.324,2.044,12.818,1.972,19.329,1.238a24.26,24.26,0,0,0,10.994-3.842,18.675,18.675,0,0,0,8.226-12.813,57.736,57.736,0,0,0,.779-9.5c.069-18.707.034-37.415.034-56.122,0-2.989,1.6-4.588,4.611-4.592q6.845-.009,13.691,0c3,0,4.6,1.575,4.617,4.606.024,5.163.007,10.326.008,15.488V36.171" transform="translate(-583.617 -0.005)" fill="none" stroke="#fff" stroke-width="1"/>
    <path id="Контур_26" data-name="Контур 26" d="M0,51.35Q0,27.976,0,4.6A4.175,4.175,0,0,1,2.6.333,4.434,4.434,0,0,1,4.27.03Q29.782.007,55.3.027A67.882,67.882,0,0,1,71.883,1.97c8.315,2.1,15.383,6.061,20.022,13.577A29.623,29.623,0,0,1,96.121,28.7a39.153,39.153,0,0,1-2.453,18.384C90.3,55.413,84.209,60.8,75.758,63.627c-6.494,2.169-13.231,2.684-20.012,2.732-10.115.071-20.23.05-30.346.068-2.08,0-2.44.365-2.44,2.458q0,14.531,0,29.062c0,3.342-1.57,4.9-4.93,4.907q-6.606.007-13.211,0C1.645,102.85,0,101.19,0,98Q0,74.676,0,51.35M39.2,17.774v-.086q-6.939,0-13.879,0c-1.945,0-2.361.415-2.361,2.354q0,13.668,0,27.337c0,.191-.008.383,0,.573a1.532,1.532,0,0,0,1.522,1.637,6.832,6.832,0,0,0,.955.038c7.753,0,15.506.061,23.258-.027a92.7,92.7,0,0,0,9.535-.634,17.038,17.038,0,0,0,8.5-3.168c4.144-3.128,5.8-7.426,5.914-12.467A13.658,13.658,0,0,0,63.672,19.69,32.166,32.166,0,0,0,52.693,17.8c-4.495-.118-8.995-.028-13.493-.028" transform="translate(0 -0.007)" fill="none" stroke="#fff" stroke-width="1"/>
    <path id="Контур_27" data-name="Контур 27" d="M679.853,51.425q0-23.372,0-46.744c0-3.043,1.608-4.659,4.652-4.662q6.892-.007,13.784,0a4.085,4.085,0,0,1,4.486,4.345c.013.414.005.828.005,1.242q0,38.571,0,77.142c0,1.977.372,2.352,2.334,2.352q25.654,0,51.308,0a20.418,20.418,0,0,1,2.292.1,2.431,2.431,0,0,1,2.148,3.241c-.908,2.781-1.913,5.53-2.888,8.29-.434,1.23-.847,2.471-1.354,3.671a3.667,3.667,0,0,1-3.754,2.484c-22.654-.049-45.309-.026-67.964-.048a6.722,6.722,0,0,1-2.609-.416,4.039,4.039,0,0,1-2.448-4.065q.015-23.229.006-46.457v-.478" transform="translate(-419.383 -0.009)" fill="none" stroke="#fff" stroke-width="1"/>
  </g>
</svg>
