<svg xmlns="http://www.w3.org/2000/svg" width="9.007" height="17.108" viewBox="0 0 9.007 17.108">
  <g id="Layer_2" data-name="Layer 2" transform="translate(0.4 0.4)">
    <g id="Layer_1" data-name="Layer 1" transform="translate(0 0)">
      <path id="Контур_82" data-name="Контур 82" d="M7.975,7.754C5.905,6.561,4.569,3.7,4.569.465a.465.465,0,1,0-.93,0C3.638,3.7,2.3,6.561.233,7.754a.459.459,0,0,0-.233.4.471.471,0,0,0,.233.406c2.07,1.193,3.406,4.056,3.406,7.283a.465.465,0,0,0,.93,0c0-3.227,1.336-6.09,3.406-7.283a.471.471,0,0,0,.233-.406.459.459,0,0,0-.233-.4Z" transform="translate(0 0)" fill="none" stroke="#f4f0e7" stroke-width="0.8" fill-rule="evenodd"/>
    </g>
  </g>
</svg>
