<svg xmlns="http://www.w3.org/2000/svg" xmlns:xlink="http://www.w3.org/1999/xlink" width="14.106" height="14.239" viewBox="0 0 14.106 14.239"><defs><clipPath id="a"><rect width="14.106" height="14.239" fill="none"/></clipPath></defs><g transform="translate(1 3.059)"><g transform="translate(-1 -3.059)" clip-path="url(#a)"><path d="M1.519.984c-.345,0-.682,0-1.018,0A.488.488,0,0,1,.037.312.459.459,0,0,1,.476.005q.751-.009,1.5,0a.481.481,0,0,1,.476.453c.065.6.126,1.2.188,1.8.006.061.017.121.028.2H13.081a.959.959,0,0,1,1.013.8,1.735,1.735,0,0,1-.046.6Q13.492,6.5,12.919,9.13a1.462,1.462,0,0,1-1.476,1.182q-3.788,0-7.576,0A1.474,1.474,0,0,1,2.359,8.936c-.144-1.413-.3-2.825-.448-4.238q-.191-1.814-.379-3.629c0-.02-.006-.04-.014-.085M2.768,3.446c.07.658.138,1.3.206,1.938.121,1.148.241,2.3.364,3.445a.5.5,0,0,0,.57.5h7.5a.5.5,0,0,0,.561-.449q.49-2.276.977-4.552c.063-.292.124-.584.188-.883Z" transform="translate(0 -0.001)"/><path d="M71.922,277.105a1.472,1.472,0,1,1,1.468,1.477,1.477,1.477,0,0,1-1.468-1.477m1.962.017a.49.49,0,1,0-.5.478.5.5,0,0,0,.5-.478" transform="translate(-68.975 -264.344)"/><path d="M218.615,277.107a1.472,1.472,0,1,1-1.475-1.469,1.477,1.477,0,0,1,1.475,1.469m-.982.005a.49.49,0,1,0-.488.488.495.495,0,0,0,.488-.488" transform="translate(-206.834 -264.344)"/></g></g></svg>