<svg xmlns="http://www.w3.org/2000/svg" width="60.81" height="55.342" viewBox="0 0 60.81 55.342">
  <g id="Сгруппировать_1680" data-name="Сгруппировать 1680" transform="translate(-652.789 -12.719)">
    <g id="Сгруппировать_1375" data-name="Сгруппировать 1375" transform="matrix(0.259, -0.966, 0.966, 0.259, 532.158, 128.11)">
      <g id="Сгруппировать_1279" data-name="Сгруппировать 1279" transform="translate(98.052 98.613)">
        <path id="Контур_12286" data-name="Контур 12286" d="M99.667,113.071l1.989-2.108,5.575,3,3.617-3.834-3.476-5.225,2.711-2.873,10.279,15.453-3.7,3.919a1.4,1.4,0,0,1-1.414.057Zm8.84,1.578,7.126,3.835.453-.481-4.443-6.679Z" transform="translate(-99.667 -102.03)"/>
      </g>
      <g id="Сгруппировать_1280" data-name="Сгруппировать 1280" transform="translate(101.704 128.407)">
        <path id="Контур_12287" data-name="Контур 12287" d="M113.173,204.793a3.185,3.185,0,0,0,3.091,3.277l4.117.12a3.237,3.237,0,0,0,.562-.036l2.047,2.17a7.051,7.051,0,0,1-9.677-10.258l.189-.178,10.921,5.606a3.178,3.178,0,0,0-1.4-5.984l-4.117-.12a3.212,3.212,0,0,0-.562.036l-2.047-2.17a7.051,7.051,0,1,1,9.677,10.258l-.238.224-10.942-5.616A3.174,3.174,0,0,0,113.173,204.793Z" transform="translate(-111.104 -195.337)"/>
      </g>
      <g id="Сгруппировать_1281" data-name="Сгруппировать 1281" transform="translate(128.548 127.452)">
        <path id="Контур_12288" data-name="Контур 12288" d="M195.338,197.457a1.4,1.4,0,0,1,.057-1.415l3.919-3.7,15.453,10.279-2.874,2.71-5.226-3.476-3.835,3.617,3,5.575-2.108,1.989Zm10.133,3.607-6.679-4.443-.481.454,3.835,7.126Z" transform="translate(-195.172 -192.346)"/>
      </g>
      <g id="Сгруппировать_1282" data-name="Сгруппировать 1282" transform="translate(129.546 100.734)">
        <path id="Контур_12289" data-name="Контур 12289" d="M205.083,112.359,210.7,123.3l-.224.238a7.051,7.051,0,1,1-10.258-9.677l2.17,2.047a3.177,3.177,0,0,0-.036.562l.12,4.117a3.178,3.178,0,0,0,5.984,1.4l-5.606-10.921.178-.189a7.051,7.051,0,0,1,10.258,9.677l-2.17-2.047a3.2,3.2,0,0,0,.036-.561l-.12-4.117a3.179,3.179,0,0,0-5.948-1.474Z" transform="translate(-198.298 -108.673)"/>
      </g>
      <g id="Сгруппировать_1283" data-name="Сгруппировать 1283" transform="translate(116.207 97.01)">
        <path id="Контур_12290" data-name="Контур 12290" d="M168.8,97.01h2.9L167.106,114.1a1.4,1.4,0,0,1-1.058,1H160.71L156.521,97.01h3.95l3.549,15.327h.661L168.8,97.01Z" transform="translate(-156.521 -97.01)"/>
      </g>
      <g id="Сгруппировать_1284" data-name="Сгруппировать 1284" transform="translate(116.207 131.919)">
        <path id="Контур_12291" data-name="Контур 12291" d="M168.8,224.426,164.682,209.1h-.661l-3.549,15.327h-3.95l4.189-18.091h5.338a1.4,1.4,0,0,1,1.058,1l4.592,17.089h-2.9Z" transform="translate(-156.521 -206.335)"/>
      </g>
      <g id="Сгруппировать_1285" data-name="Сгруппировать 1285" transform="translate(132.204 115.921)">
        <path id="Контур_12292" data-name="Контур 12292" d="M224.711,168.514v2.9l-17.089-4.592a1.4,1.4,0,0,1-1-1.058v-5.338l18.091-4.19v3.95l-15.327,3.55v.661l15.327,4.118Z" transform="translate(-206.621 -156.235)"/>
      </g>
      <g id="Сгруппировать_1286" data-name="Сгруппировать 1286" transform="translate(97.295 115.921)">
        <path id="Контур_12293" data-name="Контур 12293" d="M97.295,168.514l15.327-4.118v-.661l-15.327-3.55v-3.95l18.091,4.19v5.338a1.4,1.4,0,0,1-1,1.058L97.3,171.412v-2.9Z" transform="translate(-97.295 -156.235)"/>
      </g>
    </g>
    <g id="Сгруппировать_1485" data-name="Сгруппировать 1485" transform="translate(413.62 -199.028)">
      <g id="Сгруппировать_1433" data-name="Сгруппировать 1433" transform="translate(265.467 234.416)">
        <g id="Сгруппировать_1316" data-name="Сгруппировать 1316" transform="translate(0 0)">
          <path id="Контур_12297" data-name="Контур 12297" d="M131.048,117.99c0-.058,0-.1,0-.145,0-.651-.02-1.3.015-1.954a2.242,2.242,0,0,1,1.255-1.946,2.371,2.371,0,0,1,3.451,1.686,2.909,2.909,0,0,1,.036.494c0,.577,0,1.154,0,1.732v.134c.148,0,.288,0,.428,0a1.442,1.442,0,0,1,.636.082,1.036,1.036,0,0,1,.661.972q.02,1.757,0,3.514a1.089,1.089,0,0,1-1.149,1.056c-1.633-.008-3.267,0-4.9,0-.385,0-.77.009-1.154-.009a1.056,1.056,0,0,1-1.008-1.045q-.014-1.757,0-3.514a1.07,1.07,0,0,1,1.086-1.053Zm2.382.435h-.739c-.746,0-1.492.006-2.237,0a.673.673,0,0,0-.7.7c.011,1.12,0,2.241,0,3.362a.829.829,0,0,0,.011.171.651.651,0,0,0,.683.525H136.1c.118,0,.236,0,.354,0a.641.641,0,0,0,.638-.649q0-1.726,0-3.453a.694.694,0,0,0-.037-.217.638.638,0,0,0-.661-.431Zm-1.947-.442h3.886c0-.024,0-.04,0-.057,0-.628,0-1.256,0-1.884a1.843,1.843,0,0,0-.023-.292,1.939,1.939,0,0,0-3.845.081c-.023.272-.017.546-.019.819C131.481,117.091,131.483,117.533,131.483,117.982Z" transform="translate(-129.315 -113.663)" stroke="#000" stroke-width="0.3"/>
          <path id="Контур_12298" data-name="Контур 12298" d="M241.357,338.448a1.081,1.081,0,1,1,1.08,1.08A1.088,1.088,0,0,1,241.357,338.448Zm1.082.643a.643.643,0,1,0-.648-.641A.648.648,0,0,0,242.439,339.091Z" transform="translate(-238.326 -331.311)" stroke="#000" stroke-width="0.3"/>
        </g>
      </g>
    </g>
  </g>
</svg>
