<svg xmlns="http://www.w3.org/2000/svg" xmlns:xlink="http://www.w3.org/1999/xlink" width="12.772" height="6.381" viewBox="0 0 12.772 6.381"><defs><clipPath id="a"><rect width="12.772" height="6.381" fill="none"/></clipPath></defs><g clip-path="url(#a)"><path d="M0,67.377a.5.5,0,0,1,.527-.3q5.859.007,11.719,0a.5.5,0,0,1,.527.3v.2a.5.5,0,0,1-.527.3q-5.859-.007-11.719,0a.5.5,0,0,1-.527-.3Z" transform="translate(0 -64.286)"/><path d="M12.772.5a.5.5,0,0,1-.527.3Q6.386.8.527.8A.5.5,0,0,1,0,.5V.3A.5.5,0,0,1,.527,0Q6.386.007,12.246,0a.5.5,0,0,1,.527.3Z" transform="translate(0 0)"/><path d="M104.795,134.65a.5.5,0,0,1-.527.3q-3.879-.008-7.757,0a.8.8,0,0,1-.209-.02.388.388,0,0,1-.285-.415.4.4,0,0,1,.358-.358,1.471,1.471,0,0,1,.15,0q3.872,0,7.745,0a.5.5,0,0,1,.527.3Z" transform="translate(-92.022 -128.572)"/></g></svg>