<svg xmlns="http://www.w3.org/2000/svg" width="11.678" height="14.104" viewBox="0 0 11.678 14.104"><g transform="translate(0.1 0.12)"><g transform="translate(0 0)"><path d="M131.733,119.7c0-.082,0-.142,0-.2,0-.909-.028-1.82.021-2.726a3.129,3.129,0,0,1,1.752-2.716,3.309,3.309,0,0,1,4.815,2.353,4.052,4.052,0,0,1,.051.689c.006.805,0,1.611,0,2.416v.187c.207,0,.4,0,.6,0a2.012,2.012,0,0,1,.887.115,1.445,1.445,0,0,1,.922,1.355q.028,2.451,0,4.9a1.519,1.519,0,0,1-1.6,1.474c-2.279-.011-4.558,0-6.837,0-.537,0-1.074.013-1.61-.013a1.473,1.473,0,0,1-1.406-1.458q-.019-2.451,0-4.9a1.494,1.494,0,0,1,1.516-1.469Zm3.324.607h-1.031c-1.041,0-2.081.009-3.122,0a.94.94,0,0,0-.975.97c.016,1.563.006,3.127.007,4.69a1.163,1.163,0,0,0,.015.239.909.909,0,0,0,.953.732h7.882c.165,0,.33,0,.494,0a.9.9,0,0,0,.89-.906q0-2.409,0-4.818a.967.967,0,0,0-.051-.3.89.89,0,0,0-.922-.6Q137.126,120.306,135.057,120.307Zm-2.717-.617h5.422c0-.033,0-.056,0-.079,0-.876,0-1.752,0-2.629a2.566,2.566,0,0,0-.033-.408,2.706,2.706,0,0,0-5.364.113c-.032.379-.024.762-.026,1.143C132.337,118.446,132.34,119.063,132.34,119.69Z" transform="translate(-129.315 -113.663)" stroke="#000" stroke-width="0.2"/><path d="M241.357,338.876a1.509,1.509,0,1,1,1.506,1.507A1.518,1.518,0,0,1,241.357,338.876Zm1.51.9a.9.9,0,1,0-.9-.894A.9.9,0,0,0,242.867,339.774Z" transform="translate(-237.128 -328.919)" stroke="#000" stroke-width="0.2"/></g></g></svg>