<svg xmlns="http://www.w3.org/2000/svg" xmlns:xlink="http://www.w3.org/1999/xlink" width="36.899" height="36.895" viewBox="0 0 36.899 36.895"><defs><clipPath id="a"><rect width="36.899" height="36.895" transform="translate(0 0.001)" fill="none"/></clipPath></defs><g transform="translate(0 -0.001)"><g clip-path="url(#a)"><path d="M.528,8.8,1.912,7.334,5.793,9.423l2.52-2.669L5.893,3.116l1.89-2,7.156,10.758L12.365,14.6a.969.969,0,0,1-.984.039ZM6.681,9.9l4.961,2.67.316-.334L8.864,7.587Z" fill="#040405"/><path d="M4.506,28.44a2.216,2.216,0,0,0,2.15,2.281h0l2.866.083a2.234,2.234,0,0,0,.391-.025l1.425,1.511A4.909,4.909,0,1,1,4.6,25.15l.132-.125,7.6,3.9a2.212,2.212,0,0,0-.977-4.165l-2.867-.084A2.221,2.221,0,0,0,8.1,24.7L6.677,23.193a4.909,4.909,0,1,1,6.736,7.142l-.165.156-7.617-3.91A2.211,2.211,0,0,0,4.506,28.44" fill="#040405"/><path d="M21.873,24.751a.971.971,0,0,1,.039-.985l2.728-2.573L35.4,28.349l-2,1.89L29.76,27.82l-2.67,2.52,2.089,3.881L27.711,35.6Zm7.054,2.511-4.649-3.093-.335.312,2.669,4.961Z" fill="#040405"/><path d="M27.176,5.159l3.91,7.617-.158.165A4.908,4.908,0,1,1,23.787,6.2L25.3,7.629a2.241,2.241,0,0,0-.027.392l.085,2.866a2.211,2.211,0,0,0,4.164.977l-3.9-7.6.124-.132a4.909,4.909,0,0,1,7.142,6.737l-1.51-1.426a2.315,2.315,0,0,0,.024-.39l-.083-2.866a2.213,2.213,0,0,0-4.14-1.026" fill="#040405"/><path d="M21.713,0h2.018l-3.2,11.9a.973.973,0,0,1-.736.7H16.082L13.166,0h2.749l2.472,10.669h.46L21.714,0Z" fill="#040405"/><path d="M21.713,36.9,18.846,26.227h-.46L15.914,36.9H13.165L16.081,24.3H19.8a.973.973,0,0,1,.736.7l3.2,11.9H21.713Z" fill="#040405"/><path d="M36.9,21.713v2.018L25,20.534a.97.97,0,0,1-.7-.736V16.082L36.9,13.165v2.749l-10.67,2.472v.46L36.9,21.712Z" fill="#040405"/><path d="M0,21.713l10.669-2.867v-.459L0,15.914V13.165l12.594,2.917v3.711a.971.971,0,0,1-.7.736L0,23.73V21.712Z" fill="#040405"/><path d="M16.93,17.9v-.1c0-.45-.014-.908.01-1.36a1.56,1.56,0,0,1,.873-1.355,1.651,1.651,0,0,1,2.234.68,1.7,1.7,0,0,1,.169.49,2.088,2.088,0,0,1,.025.344v1.295h.3a1.013,1.013,0,0,1,.443.057.72.72,0,0,1,.459.676q.014,1.224,0,2.447a.757.757,0,0,1-.778.736h-.022c-1.136-.006-2.274,0-3.411,0-.27,0-.54.006-.8-.006a.737.737,0,0,1-.7-.728q-.009-1.223,0-2.446a.745.745,0,0,1,.756-.732Zm1.658.3H16.516a.469.469,0,0,0-.487.451.182.182,0,0,0,0,.033c.008.781,0,1.56,0,2.34a.59.59,0,0,0,.007.119.451.451,0,0,0,.475.366h4.18a.45.45,0,0,0,.444-.45v-2.4a.451.451,0,0,0-.025-.151.444.444,0,0,0-.46-.3Zm-1.355-.312H19.94V16.541a1.254,1.254,0,0,0-.016-.2,1.35,1.35,0,0,0-2.677.055c-.015.189-.011.38-.013.571,0,.311,0,.619,0,.928" fill="#040405"/><path d="M16.827,21.945c-.137,0-.272,0-.406-.008a.869.869,0,0,1-.829-.859q-.01-1.227,0-2.45a.88.88,0,0,1,.879-.866h.014l.31,0,0-.328c0-.329-.006-.669.012-1a1.691,1.691,0,0,1,.949-1.469,1.785,1.785,0,0,1,2.412.738,1.815,1.815,0,0,1,.183.529,2.158,2.158,0,0,1,.027.37v1.158h.163a1.111,1.111,0,0,1,.489.066.862.862,0,0,1,.549.8c.009.81.009,1.635,0,2.448a.892.892,0,0,1-.892.869h-.027l-.033,0H18.368l-1.339,0h-.2m-.355-3.913a.61.61,0,0,0-.61.6q-.011,1.219,0,2.443a.6.6,0,0,0,.572.593c.194.009.394.01.593.006h1.34q1.137,0,2.275,0a.588.588,0,0,0,.47-.167.617.617,0,0,0,.194-.436c.01-.808.01-1.63,0-2.441a.587.587,0,0,0-.373-.551.879.879,0,0,0-.382-.05H20.1V16.6a1.868,1.868,0,0,0-.023-.323,1.482,1.482,0,0,0-.155-.448,1.516,1.516,0,0,0-2.05-.624,1.428,1.428,0,0,0-.8,1.24c-.016.329-.014.666-.011.99l0,.6-.584-.005Zm0,3.617a.584.584,0,0,1-.567-.477.76.76,0,0,1-.009-.15l0-.774c0-.519,0-1.039,0-1.558v-.04a.6.6,0,0,1,.627-.581l4.129,0a.567.567,0,0,1,.588.392.608.608,0,0,1,.033.194v2.4a.588.588,0,0,1-.579.585H16.47m.032-3.31a.335.335,0,0,0-.338.321c.005.548,0,1.068,0,1.589l0,.779a.6.6,0,0,0,.005.1.318.318,0,0,0,.333.252h4.189A.314.314,0,0,0,21,21.063v-2.4a.369.369,0,0,0-.017-.108.307.307,0,0,0-.32-.209l-4.147,0Zm3.573-.312H17.1v-.4c0-.221,0-.442,0-.665v-.124c0-.153,0-.305.014-.457a1.485,1.485,0,0,1,2.945-.065,1.525,1.525,0,0,1,.017.224Zm-2.707-.27h2.437V16.541a1.253,1.253,0,0,0-.014-.183,1.215,1.215,0,0,0-2.409.05c-.012.141-.012.286-.012.432v.126c0,.221,0,.442,0,.661Z" fill="#040405"/><path d="M17.835,19.855a.752.752,0,1,1,.753.751h0a.757.757,0,0,1-.751-.751m.753.45a.45.45,0,1,0-.45-.45.449.449,0,0,0,.45.45" fill="#040405"/><path d="M18.587,20.742a.9.9,0,0,1-.888-.886h0a.887.887,0,0,1,.886-.888h0a.888.888,0,1,1,0,1.775m-.618-.888a.625.625,0,0,0,.618.617.617.617,0,1,0,0-1.234h0a.618.618,0,0,0-.616.617m.618.586a.585.585,0,1,1,.585-.585.585.585,0,0,1-.585.585m0-.9a.315.315,0,1,0,.315.315.316.316,0,0,0-.315-.315" fill="#040405"/></g></g></svg>