<svg xmlns="http://www.w3.org/2000/svg" width="8.379" height="16.711" viewBox="0 0 8.379 16.711"><path d="M54.468,301.155c-.262-.113-.373-.249-.319-.452a.736.736,0,0,1,.2-.306q1.442-1.447,2.892-2.886c.044-.044.087-.091.156-.164h-.222q-7.33,0-14.66,0a.485.485,0,0,1-.511-.291v-.2a.5.5,0,0,1,.53-.29q7.307,0,14.614,0h.25c-.065-.069-.107-.114-.15-.157q-1.464-1.46-2.924-2.924a.7.7,0,0,1-.172-.331.31.31,0,0,1,.2-.341.343.343,0,0,1,.4.033,1.94,1.94,0,0,1,.169.152q1.789,1.78,3.575,3.562a3.026,3.026,0,0,1,.23.292v.2a3.093,3.093,0,0,1-.23.291q-1.785,1.785-3.578,3.563a2.591,2.591,0,0,1-.337.243Z" transform="translate(301.155 -42) rotate(90)"/></svg>