<svg xmlns="http://www.w3.org/2000/svg" width="13.818" height="13.796" viewBox="0 0 13.818 13.796"><path d="M55.252,179.114a3.555,3.555,0,0,1-.324-.253q-1.643-1.607-3.28-3.22c-.054-.053-.1-.115-.151-.173-.231.154-.438.3-.655.434a5.745,5.745,0,0,1-2.282.79,5.81,5.81,0,0,1-6.48-4.715c-.031-.17-.054-.343-.08-.514V170.6c.034-.211.062-.423.1-.633a5.412,5.412,0,0,1,1.092-2.4A5.878,5.878,0,0,1,51.06,166.3a5.533,5.533,0,0,1,2.506,3.9,5.461,5.461,0,0,1-.917,3.99c-.155.23-.334.444-.51.677.024.026.052.059.083.089q1.649,1.62,3.3,3.242c.11.108.2.235.3.353v.242a.621.621,0,0,1-.324.323Zm-2.524-8.081a4.488,4.488,0,0,0-.232-1.468,4.739,4.739,0,0,0-1.8-2.436,4.872,4.872,0,0,0-3.864-.823,4.842,4.842,0,0,0-3.846,5.6,4.546,4.546,0,0,0,1.5,2.668,4.881,4.881,0,0,0,4.3,1.185,4.578,4.578,0,0,0,1.986-.882A4.761,4.761,0,0,0,52.727,171.033Z" transform="translate(-42 -165.318)"/></svg>