<svg xmlns="http://www.w3.org/2000/svg" xmlns:xlink="http://www.w3.org/1999/xlink" width="14.129" height="14.135" viewBox="0 0 14.129 14.135"><defs><clipPath id="a"><rect width="14.129" height="14.135"/></clipPath></defs><g clip-path="url(#a)"><path d="M7.06,197.587c-1.77,0-3.541-.022-5.311.009a1.667,1.667,0,0,1-1.744-1.865,4.49,4.49,0,0,1,3.045-3.967,4.081,4.081,0,0,1,1.313-.227c1.8,0,3.6-.014,5.405,0a4.447,4.447,0,0,1,4.336,4,2.29,2.29,0,0,1-.053.936,1.6,1.6,0,0,1-1.556,1.109q-2.718,0-5.437,0m.007-1.009h5.376a.6.6,0,0,0,.674-.695,3.483,3.483,0,0,0-.076-.624,3.431,3.431,0,0,0-3.4-2.716q-2.538,0-5.076,0a5.235,5.235,0,0,0-.534.029,3.448,3.448,0,0,0-3.019,3.3.609.609,0,0,0,.693.71h5.36" transform="translate(0 -183.461)"/><path d="M83.941,3.529A3.531,3.531,0,1,1,87.5,7.062a3.535,3.535,0,0,1-3.557-3.533m6.054,0a2.522,2.522,0,1,0-2.5,2.521,2.526,2.526,0,0,0,2.5-2.521" transform="translate(-80.405 0)"/></g></svg>