<svg xmlns="http://www.w3.org/2000/svg" width="28.806" height="34.454" viewBox="0 0 28.806 34.454"><g transform="translate(28.806) rotate(90)"><path d="M 30.92775726318359 28.30582809448242 L 3.526458024978638 28.30582809448242 C 2.979347944259644 28.30582809448242 2.491588115692139 28.02170753479004 2.221688032150269 27.54581832885742 C 1.951787948608398 27.06991767883301 1.958297967910767 26.50547790527344 2.239108085632324 26.03593826293945 L 15.93975830078125 3.126768112182617 C 16.21315765380859 2.669598340988159 16.69441795349121 2.396658182144165 17.22710800170898 2.396658182144165 C 17.75978851318359 2.396658182144165 18.24104881286621 2.669598340988159 18.51444816589355 3.126768112182617 L 32.21510696411133 26.03593826293945 C 32.49591827392578 26.50547790527344 32.50242614746094 27.06991767883301 32.23252868652344 27.54581832885742 C 31.96262741088867 28.02170753479004 31.47486877441406 28.30582809448242 30.92775726318359 28.30582809448242 Z" stroke="none"/><path d="M 17.22709846496582 2.896657943725586 C 17.05657768249512 2.896657943725586 16.6315975189209 2.944087982177734 16.36886787414551 3.383398056030273 L 2.668218612670898 26.29256820678711 C 2.398387908935547 26.7437686920166 2.570207595825195 27.14681816101074 2.656608581542969 27.29915809631348 C 2.743007659912109 27.45149803161621 3.000717163085938 27.80582809448242 3.526447296142578 27.80582809448242 L 30.92775726318359 27.80582809448242 C 31.45348739624023 27.80582809448242 31.71120834350586 27.45149803161621 31.797607421875 27.29914855957031 C 31.88400840759277 27.14680862426758 32.05582809448242 26.7437686920166 31.78599739074707 26.29256820678711 L 18.0853271484375 3.383398056030273 C 17.82260894775391 2.944087982177734 17.39761734008789 2.896657943725586 17.22709846496582 2.896657943725586 M 17.22710227966309 1.896659851074219 C 17.89127540588379 1.896659851074219 18.55544662475586 2.221153259277344 18.94356918334961 2.870138168334961 L 32.64422607421875 25.7793083190918 C 33.44147872924805 27.11240768432617 32.48105621337891 28.80582809448242 30.92775726318359 28.80582809448242 L 3.526447296142578 28.80582809448242 C 1.973148345947266 28.80582809448242 1.012737274169922 27.11240768432617 1.809986114501953 25.7793083190918 L 15.5106372833252 2.870138168334961 C 15.89875793457031 2.221153259277344 16.56293106079102 1.896659851074219 17.22710227966309 1.896659851074219 Z" stroke="none" fill="#000"/></g></svg>