<svg width="17" height="14" viewBox="0 0 17 14" fill="none" xmlns="http://www.w3.org/2000/svg">
<path d="M14.8437 3.74999C14.8645 3.83333 14.875 3.96874 14.875 4.15624C14.875 5.65624 14.5104 7.10415 13.7812 8.49998C13.0312 9.97914 11.9791 11.1562 10.625 12.0312C9.14581 13.0104 7.4479 13.5 5.53124 13.5C3.69791 13.5 2.02083 13.0104 0.5 12.0312C0.729166 12.0521 0.989582 12.0625 1.28125 12.0625C2.80208 12.0625 4.16666 11.5937 5.37499 10.6562C4.64582 10.6562 4.0052 10.4427 3.45312 10.0156C2.90104 9.58852 2.52083 9.05206 2.3125 8.40623C2.52083 8.42706 2.71874 8.43748 2.90624 8.43748C3.19791 8.43748 3.48958 8.40623 3.78124 8.34373C3.03124 8.17707 2.40625 7.79165 1.90625 7.18748C1.40625 6.58332 1.15625 5.89582 1.15625 5.12499V5.06249C1.61458 5.33332 2.10416 5.47915 2.62499 5.49999C2.1875 5.18749 1.83333 4.79166 1.5625 4.31249C1.29166 3.83333 1.15625 3.30728 1.15625 2.73437C1.15625 2.16145 1.3125 1.61458 1.625 1.09375C2.4375 2.11458 3.43228 2.92708 4.60936 3.53124C5.78645 4.13541 7.04165 4.46874 8.37498 4.53124C8.33331 4.28124 8.31248 4.03124 8.31248 3.78124C8.31248 3.19791 8.45831 2.65104 8.74998 2.14062C9.04165 1.63021 9.43748 1.22916 9.93748 0.937499C10.4375 0.645833 10.9791 0.5 11.5625 0.5C12.0416 0.5 12.4843 0.59375 12.8906 0.781249C13.2968 0.968749 13.6562 1.21875 13.9687 1.53125C14.7187 1.38541 15.4166 1.125 16.0625 0.749999C15.8125 1.52083 15.3333 2.125 14.625 2.56249C15.25 2.47916 15.875 2.30208 16.5 2.03125C16.0416 2.69791 15.4895 3.27083 14.8437 3.74999Z" fill="#CBFC01"/>
</svg>
