<svg width="28" height="28" viewBox="0 0 28 28" fill="none" xmlns="http://www.w3.org/2000/svg">
<path d="M14 0C6.2681 0 0 6.2681 0 14C0 21.7319 6.2681 28 14 28C21.7319 28 28 21.7319 28 14C27.9913 6.27174 21.7283 0.00865888 14 0ZM26.108 18.9046L22.1266 19.5916C22.5823 17.9202 22.8284 16.1987 22.8591 14.4667H27.055C27.0024 15.9902 26.6818 17.4925 26.108 18.9046ZM0.944954 14.4667H5.14085C5.17161 16.1987 5.41771 17.9202 5.87344 19.5916L1.89196 18.9046C1.3182 17.4925 0.997591 15.9902 0.944954 14.4667ZM1.89196 9.09544L5.87344 8.40843C5.41771 10.0798 5.17161 11.8013 5.14085 13.5333H0.944954C0.997591 12.0098 1.3182 10.5075 1.89196 9.09544ZM14.4667 7.49287C16.1435 7.51429 17.8163 7.66696 19.4694 7.94974L21.1167 8.23389C21.6228 9.95609 21.8951 11.7384 21.9263 13.5333H14.4667V7.49287ZM19.6285 7.02985C17.9229 6.73841 16.1968 6.58096 14.4667 6.55954V0.959538C17.142 1.21657 19.466 3.66611 20.7831 7.23105L19.6285 7.02985ZM13.5333 6.55954C11.8032 6.58096 10.0775 6.73841 8.37197 7.02985L7.21693 7.22969C8.53398 3.66383 10.858 1.21338 13.5333 0.957487V6.55954ZM8.53102 7.94974C10.184 7.66696 11.8565 7.51429 13.5333 7.49287V13.5333H6.07373C6.10495 11.7384 6.37725 9.95609 6.88333 8.23389L8.53102 7.94974ZM6.07373 14.4667H13.5333V20.5071C11.8565 20.4857 10.1837 20.333 8.53057 20.0503L6.88333 19.7661C6.37725 18.0439 6.10495 16.2616 6.07373 14.4667ZM8.37152 20.9701C10.0771 21.262 11.8029 21.4202 13.5333 21.443V27.043C10.858 26.7857 8.53398 24.3362 7.21693 20.7712L8.37152 20.9701ZM14.4667 21.443C16.1968 21.4202 17.9225 21.262 19.628 20.9701L20.7831 20.7703C19.466 24.3362 17.142 26.7866 14.4667 27.0425V21.443ZM19.469 20.0503C17.816 20.333 16.1435 20.4857 14.4667 20.5071V14.4667H21.9263C21.8951 16.2616 21.6228 18.0439 21.1167 19.7661L19.469 20.0503ZM22.8591 13.5333C22.8284 11.8013 22.5823 10.0798 22.1266 8.40843L26.108 9.09544C26.6818 10.5075 27.0024 12.0098 27.055 13.5333H22.8591ZM25.6359 8.06686L21.8194 7.40833C21.1333 5.17002 19.8497 3.16117 18.1066 1.59824C21.3662 2.68607 24.0693 5.00824 25.6359 8.06686ZM9.89342 1.59824C8.15026 3.16117 6.8667 5.17002 6.1806 7.40833L2.36409 8.06686C3.93066 5.00824 6.63382 2.68607 9.89342 1.59824ZM2.36409 19.9331L6.1806 20.5917C6.8667 22.83 8.15026 24.8388 9.89342 26.4018C6.63382 25.3139 3.93066 22.9918 2.36409 19.9331ZM18.1066 26.4018C19.8497 24.8388 21.1333 22.83 21.8194 20.5917L25.6359 19.9331C24.0693 22.9918 21.3662 25.3139 18.1066 26.4018Z" fill="#C2AE8C"/>
</svg>
