<svg width="18" height="18" viewBox="0 0 18 18" fill="none" xmlns="http://www.w3.org/2000/svg">
<g id="instagram-seeklogo.com 1" clip-path="url(#clip0_16_125)">
<g id="Group">
<path id="Vector" d="M8.69085 1.62075C10.9793 1.62075 11.2504 1.62989 12.1541 1.67317C12.9898 1.7132 13.4436 1.85973 13.7456 1.98288C14.1457 2.14606 14.4312 2.34101 14.7311 2.65576C15.031 2.9705 15.2168 3.27018 15.3722 3.69001C15.4896 4.007 15.6292 4.48328 15.6674 5.36025C15.7086 6.30877 15.7173 6.59324 15.7173 8.99502C15.7173 11.3968 15.7086 11.6813 15.6674 12.6298C15.6292 13.5068 15.4896 13.983 15.3722 14.3C15.2168 14.7199 15.031 15.0195 14.7311 15.3343C14.4312 15.649 14.1457 15.844 13.7456 16.0071C13.4436 16.1303 12.9898 16.2768 12.1541 16.3169C11.2505 16.3601 10.9795 16.3693 8.69085 16.3693C6.40221 16.3693 6.13116 16.3601 5.22755 16.3169C4.39191 16.2768 3.93809 16.1303 3.63608 16.0071C3.23602 15.844 2.95048 15.649 2.65058 15.3343C2.35068 15.0195 2.16492 14.7199 2.00947 14.3C1.8921 13.983 1.75248 13.5068 1.71434 12.6298C1.6731 11.6813 1.66439 11.3968 1.66439 8.99502C1.66439 6.59324 1.6731 6.30877 1.71434 5.36028C1.75248 4.48328 1.8921 4.007 2.00947 3.69001C2.16492 3.27018 2.35068 2.9705 2.65058 2.65576C2.95048 2.34101 3.23602 2.14606 3.63608 1.98288C3.93809 1.85973 4.39191 1.7132 5.22751 1.67317C6.1313 1.62989 6.40235 1.62075 8.69085 1.62075ZM8.69085 0C6.36316 0 6.07132 0.0103547 5.15716 0.0541299C4.24487 0.0978336 3.62186 0.249869 3.07667 0.472244C2.51306 0.702117 2.03509 1.00969 1.55862 1.50974C1.08215 2.0098 0.789085 2.51143 0.570053 3.10293C0.358167 3.67512 0.213302 4.32896 0.17166 5.28641C0.129949 6.24579 0.120117 6.5521 0.120117 8.99502C0.120117 11.4379 0.129949 11.7442 0.17166 12.7036C0.213302 13.6611 0.358167 14.3149 0.570053 14.8871C0.789085 15.4786 1.08215 15.9802 1.55862 16.4803C2.03509 16.9803 2.51306 17.2879 3.07667 17.5178C3.62186 17.7402 4.24487 17.8922 5.15716 17.9359C6.07132 17.9797 6.36316 17.99 8.69085 17.99C11.0185 17.99 11.3104 17.9797 12.2245 17.9359C13.1368 17.8922 13.7598 17.7402 14.305 17.5178C14.8686 17.2879 15.3466 16.9803 15.8231 16.4803C16.2995 15.9802 16.5926 15.4786 16.8116 14.8871C17.0235 14.3149 17.1684 13.6611 17.21 12.7036C17.2517 11.7442 17.2616 11.4379 17.2616 8.99502C17.2616 6.5521 17.2517 6.24579 17.21 5.28641C17.1684 4.32896 17.0235 3.67512 16.8116 3.10293C16.5926 2.51143 16.2995 2.0098 15.8231 1.50974C15.3466 1.00969 14.8686 0.702117 14.305 0.472244C13.7598 0.249869 13.1368 0.0978336 12.2245 0.0541299C11.3104 0.0103547 11.0185 0 8.69085 0ZM8.69085 4.37595C6.26014 4.37595 4.28964 6.44399 4.28964 8.99502C4.28964 11.546 6.26014 13.6141 8.69085 13.6141C11.1216 13.6141 13.0921 11.546 13.0921 8.99502C13.0921 6.44399 11.1216 4.37595 8.69085 4.37595ZM8.69085 11.9934C7.11303 11.9934 5.83392 10.6509 5.83392 8.99502C5.83392 7.33909 7.11303 5.99667 8.69085 5.99667C10.2687 5.99667 11.5478 7.33909 11.5478 8.99502C11.5478 10.6509 10.2687 11.9934 8.69085 11.9934ZM14.2944 4.19346C14.2944 4.7896 13.834 5.27288 13.2659 5.27288C12.6979 5.27288 12.2374 4.7896 12.2374 4.19346C12.2374 3.59731 12.6979 3.11407 13.2659 3.11407C13.834 3.11407 14.2944 3.59731 14.2944 4.19346Z" fill="white"/>
</g>
</g>
<defs>
<clipPath id="clip0_16_125">
<rect width="17.1415" height="17.99" fill="white" transform="translate(0.120117)"/>
</clipPath>
</defs>
</svg>
