<svg width="17" height="16" viewBox="0 0 17 16" fill="none" xmlns="http://www.w3.org/2000/svg">
<g id="Vector">
<path d="M16.2617 16V10.14C16.2617 7.26 15.6417 5.06 12.2817 5.06C10.6617 5.06 9.58172 5.94 9.14172 6.78H9.10172V5.32H5.92172V16H9.24172V10.7C9.24172 9.3 9.50172 7.96 11.2217 7.96C12.9217 7.96 12.9417 9.54 12.9417 10.78V15.98H16.2617V16Z" fill="white"/>
<path d="M0.521719 5.32H3.84172V16H0.521719V5.32Z" fill="white"/>
<path d="M2.18172 0C1.12172 0 0.261719 0.86 0.261719 1.92C0.261719 2.98 1.12172 3.86 2.18172 3.86C3.24172 3.86 4.10172 2.98 4.10172 1.92C4.10172 0.86 3.24172 0 2.18172 0Z" fill="white"/>
</g>
</svg>
