<svg width="28" height="38" viewBox="0 0 28 38" fill="none" xmlns="http://www.w3.org/2000/svg">
<path d="M14 38C14.1836 38 14.3671 37.9335 14.5149 37.8021C15.0656 37.3065 28 25.5613 28 14.25C28 6.39192 21.7187 0 14 0C6.28133 0 0 6.39192 0 14.25C0 25.5613 12.9344 37.3065 13.4851 37.8021C13.6329 37.9335 13.8164 38 14 38ZM14 1.58333C20.8616 1.58333 26.4444 7.26592 26.4444 14.25C26.4444 23.6202 16.4096 33.8168 14 36.1301C11.5904 33.8168 1.55556 23.6202 1.55556 14.25C1.55556 7.26592 7.13844 1.58333 14 1.58333Z" fill="#484746"/>
<path d="M14 22C18.4112 22 22 18.4112 22 14C22 9.5888 18.4112 6 14 6C9.5888 6 6 9.5888 6 14C6 18.4112 9.5888 22 14 22ZM14 7.6C17.5296 7.6 20.4 10.4704 20.4 14C20.4 17.5296 17.5296 20.4 14 20.4C10.4704 20.4 7.6 17.5296 7.6 14C7.6 10.4704 10.4704 7.6 14 7.6Z" fill="#484746"/>
</svg>
