<svg width="28" height="29" viewBox="0 0 28 29" fill="none" xmlns="http://www.w3.org/2000/svg">
<path id="Vector" d="M8.43309 19.9792C11.1078 22.6505 14.0375 25.0534 17.1804 27.1535C18.5221 28.0495 20.1319 28.4544 21.7377 28.2998C23.3435 28.1452 24.8466 27.4407 25.9929 26.3052L27.0004 25.2971C27.6408 24.6506 28 23.7773 28 22.8672C28 21.9571 27.6407 21.0838 27.0004 20.4373L24.5101 17.9461C24.1638 17.6089 23.7515 17.3471 23.2991 17.1773C22.8467 17.0074 22.364 16.9332 21.8815 16.9592C21.399 16.9853 20.9271 17.1111 20.4956 17.3287C20.0641 17.5463 19.6824 17.851 19.3745 18.2235C19.1733 18.4269 18.9086 18.5554 18.6244 18.5876C18.3402 18.6197 18.0535 18.5537 17.812 18.4004C14.6344 16.3915 11.9444 13.6995 9.93766 10.5199C9.78609 10.2789 9.72155 9.99327 9.75479 9.71047C9.78803 9.42768 9.91703 9.16478 10.1204 8.96551C10.4933 8.65786 10.7984 8.27612 11.0162 7.84445C11.2341 7.41278 11.36 6.94058 11.386 6.45771C11.412 5.97485 11.3375 5.49185 11.1673 5.03926C10.9971 4.58668 10.7348 4.17437 10.397 3.82842L7.90673 1.33697C7.26197 0.693439 6.38835 0.332031 5.47755 0.332031C4.56674 0.332031 3.69313 0.693439 3.04837 1.33697L2.04035 2.34555C0.908467 3.4755 0.200793 4.96138 0.0366964 6.55256C-0.1274 8.14375 0.262121 9.74286 1.13956 11.0802C3.26922 14.2815 5.71246 17.2626 8.43309 19.9792ZM2.7477 3.05314C3.48583 2.31441 4.33084 1.25619 5.47771 1.33262C5.79742 1.33201 6.1141 1.39459 6.40955 1.51676C6.70501 1.63893 6.97343 1.81829 7.1994 2.04453L9.68976 4.53598C9.93438 4.78951 10.1227 5.09187 10.2424 5.42326C10.3621 5.75465 10.4104 6.10759 10.3842 6.45897C10.3581 6.81035 10.258 7.15224 10.0906 7.46224C9.92316 7.77225 9.69215 8.04337 9.41269 8.25785C9.0481 8.61724 8.81743 9.0906 8.75902 9.59928C8.70061 10.108 8.81797 10.6213 9.0916 11.054C11.1778 14.3594 13.9742 17.158 17.2776 19.2462C17.7106 19.5223 18.2251 19.6415 18.7354 19.5842C19.2456 19.5268 19.7208 19.2963 20.0818 18.931C20.3238 18.6321 20.6277 18.3891 20.9725 18.2188C21.3173 18.0486 21.6949 17.955 22.0793 17.9447C22.3992 17.9432 22.7161 18.005 23.0119 18.1267C23.3077 18.2484 23.5765 18.4276 23.8027 18.6538L26.2931 21.145C26.5199 21.3706 26.6997 21.639 26.8221 21.9346C26.9445 22.2303 27.0071 22.5472 27.0063 22.8672C27.0856 24.0129 26.0107 24.8725 25.2855 25.5976C24.3031 26.5699 23.0151 27.1729 21.6395 27.3047C20.2638 27.4365 18.8848 27.0889 17.7358 26.3209C11.4919 22.147 6.13489 16.779 1.97294 10.526C1.22279 9.38143 0.890239 8.01305 1.03138 6.65171C1.17251 5.29037 1.77871 4.01938 2.7477 3.05314Z" fill="#AF9C7D"/>
</svg>
