<svg width="58" height="58" viewBox="0 0 58 58" fill="none" xmlns="http://www.w3.org/2000/svg">
<g id="Group">
<path id="Vector" d="M49.5062 8.49383C44.0287 3.0166 36.7462 0 29 0C21.2538 0 13.9713 3.0166 8.49383 8.49383C3.0166 13.9713 0 21.2538 0 29C0 36.7462 3.0166 44.0287 8.49383 49.5062C13.9713 54.9834 21.2538 58 29 58C36.7462 58 44.0287 54.9834 49.5062 49.5062C54.9834 44.0287 58 36.7462 58 29C58 21.2538 54.9834 13.9713 49.5062 8.49383ZM29 54.4124C14.9876 54.4124 3.58763 43.0124 3.58763 29C3.58763 14.9876 14.9876 3.58763 29 3.58763C43.0124 3.58763 54.4124 14.9876 54.4124 29C54.4124 43.0124 43.0124 54.4124 29 54.4124Z" fill="white"/>
<path id="Vector_2" d="M21.6528 40.2504L41.1308 29.0002L21.6528 17.75V40.2504Z" fill="white"/>
</g>
</svg>
